<svg width="459.59999999999997" height="119.89565217391304" viewBox="0 0 230 60"
    class="looka-1j8o68f">
    <defs id="SvgjsDefs1170"></defs>
    <g id="SvgjsG1171" featurekey="S6ay6y-0" transform="matrix(1.25,0,0,1.25,0,0)" fill="#ffd6b6">
        <g xmlns="http://www.w3.org/2000/svg">
            <path
                d="M36,10.5L23.7,22.8c-0.4,0.4-0.4,1.1,0,1.5c0.4,0.4,1.1,0.4,1.5,0L37.5,12l3.7,0.5L48,5.7L43,5l-0.7-5l-6.9,6.9L36,10.5z"></path>
            <path
                d="M42,14.5c1.5,2.8,2.4,6,2.4,9.5c0,11.2-9.1,20.3-20.3,20.3C12.8,44.3,3.7,35.2,3.7,24C3.7,12.8,12.8,3.7,24,3.7   c3.4,0,6.6,0.8,9.5,2.3l2.7-2.7C32.6,1.2,28.4,0,24,0C10.8,0,0,10.8,0,24c0,13.2,10.8,24,24,24c13.2,0,24-10.8,24-24   c0-4.4-1.2-8.6-3.3-12.2L42,14.5z"></path>
            <path
                d="M33.4,10.3c-2.7-1.9-5.9-2.9-9.4-2.9C14.8,7.4,7.4,14.8,7.4,24c0,9.2,7.4,16.6,16.6,16.6S40.6,33.2,40.6,24   c0-3.5-1.1-6.7-2.9-9.4L35,17.3c1.2,2,1.9,4.3,1.9,6.7c0,7.1-5.8,12.9-12.9,12.9c-7.1,0-12.9-5.8-12.9-12.9   c0-7.1,5.8-12.9,12.9-12.9c2.5,0,4.8,0.7,6.7,1.9L33.4,10.3z"></path>
            <path
                d="M24,18.5c0.4,0,0.8,0,1.1,0.1l2.9-2.9c-1.2-0.6-2.6-0.9-4-0.9c-5.1,0-9.2,4.1-9.2,9.2s4.1,9.2,9.2,9.2s9.2-4.1,9.2-9.2   c0-1.4-0.3-2.8-0.9-4l-2.9,2.9c0,0,0,0,0,0c0.1,0.4,0.1,0.7,0.1,1.1c0,3.1-2.5,5.5-5.5,5.5c-3.1,0-5.5-2.5-5.5-5.5   C18.5,20.9,20.9,18.5,24,18.5z"></path>
        </g>
    </g>
    <g id="SvgjsG1172" featurekey="j5pGhi-0"
        transform="matrix(4.039956129423338,0,0,4.039956129423338,73.88535456698354,-26.139760407061416)"
        fill="#ffd6b6">
        <path
            d="M1.5137 15.293 l0 -1.709 q0.17578125 -2.1875 0.91796875 -3.203125 q0.615234375 -0.927734375 1.611328125 -1.474609375 q0.654296875 -0.419921875 1.865234375 -0.44921875 q0.78125 0 1.58203125 0.29296875 t1.2402 0.78125 t0.88867 1.4648 q0.244140625 -0.625 1.025390625 -1.46484375 q0.380859375 -0.322265625 0.986328125 -0.634765625 q0.41015625 -0.263671875 1.904296875 -0.439453125 q1.11328125 0 2.138671875 0.556640625 t1.4404 1.5674 t0.41504 3.0127 l0 5.8496 l-1.4063 0 l0 -5.8496 q0 -1.71875 -0.244140625 -2.36328125 t-0.83984 -1.04 t-1.4355 -0.39551 q-1.58203125 0.107421875 -2.705078125 1.533203125 q-0.439453125 0.60546875 -0.6640625 2.685546875 l0 5.4297 l-1.377 0 l0 -5.4883 q0 -1.93359375 -0.4296875 -2.631835938 t-1.0254 -1.1133 t-1.4844 -0.41504 q-0.95703125 0 -1.645507813 0.48828125 t-1.0791 1.46 t-0.3125 3.1592 l0 4.541 l-1.3672 0 l0 -4.1504 z M25.47851875 8.203 q2.470703125 0 4.1015625 1.787109375 q1.50390625 1.630859375 1.50390625 3.876953125 q0.01953125 5.546875 0 5.634765625 l-1.4551 0 l0 -2.4316 q-1.142578125 2.12890625 -4.150390625 2.3828125 q-2.4609375 0 -4.018554688 -1.674804688 t-1.5576 -3.9111 q0 -2.2265625 1.474609375 -3.8671875 q1.630859375 -1.796875 4.1015625 -1.796875 z M25.47851875 9.551 q-1.708984375 0 -2.939453125 1.26953125 t-1.2305 3.0664 q0 1.162109375 0.6298828125 2.236328125 t2.1338 1.8164 q3.76953125 0.83984375 5.361328125 -3.427734375 q0.087890625 -1.3671875 -0.29296875 -2.6171875 q-0.2734375 -0.56640625 -0.751953125 -1.07421875 q-1.201171875 -1.26953125 -2.91015625 -1.26953125 z M33.2324625 14.541 l0 -1.2891 q0.15625 -0.966796875 0.44921875 -1.572265625 q0.68359375 -1.6796875 1.8359375 -2.4609375 t1.9141 -0.78125 q0.56640625 0 1.2109375 0.37109375 l-0.71289 1.1523 q-0.908203125 -0.33203125 -1.801757813 0.537109375 t-1.2354 1.8945 q-0.25390625 0.908203125 -0.25390625 3.408203125 l0 3.623 l-1.4063 0 l0 -4.8828 z"></path>
    </g>
</svg>